<svg width="307" height="59" viewBox="0 0 307 59" fill="none" xmlns="http://www.w3.org/2000/svg">
    <path d="M21.888 16.632L20.832 21.56H24.896V25.56H19.968L18.816 31H14.56L15.712 25.56H9.888L8.736 31H4.512L5.664 25.56H0.832V21.56H6.528L7.584 16.632H2.784V12.632H8.448L9.568 7.32H13.792L12.672 12.632H18.496L19.616 7.32H23.872L22.752 12.632H26.848V16.632H21.888ZM17.632 16.632H11.808L10.752 21.56H16.576L17.632 16.632ZM35.063 12.28V17.88H42.583V21.432H35.063V27.352H43.543V31H30.583V8.632H43.543V12.28H35.063ZM57.4383 13.016C59.5503 13.016 61.2569 13.688 62.5583 15.032C63.8596 16.3547 64.5103 18.2107 64.5103 20.6V31H60.0303V21.208C60.0303 19.8 59.6783 18.7227 58.9743 17.976C58.2703 17.208 57.3103 16.824 56.0943 16.824C54.8569 16.824 53.8756 17.208 53.1503 17.976C52.4463 18.7227 52.0943 19.8 52.0943 21.208V31H47.6143V13.272H52.0943V15.48C52.6916 14.712 53.4489 14.1147 54.3663 13.688C55.3049 13.24 56.3289 13.016 57.4383 13.016ZM73.9865 16.952V25.528C73.9865 26.1253 74.1252 26.5627 74.4025 26.84C74.7012 27.096 75.1918 27.224 75.8745 27.224H77.9545V31H75.1385C71.3625 31 69.4745 29.1653 69.4745 25.496V16.952H67.3625V13.272H69.4745V8.888H73.9865V13.272H77.9545V16.952H73.9865ZM85.6568 16.024C86.2328 15.0853 86.9794 14.3493 87.8968 13.816C88.8354 13.2827 89.9021 13.016 91.0968 13.016V17.72H89.9128C88.5048 17.72 87.4381 18.0507 86.7128 18.712C86.0088 19.3733 85.6568 20.5253 85.6568 22.168V31H81.1768V13.272H85.6568V16.024ZM110.594 21.752C110.594 22.392 110.552 22.968 110.466 23.48H97.5063C97.6129 24.76 98.0609 25.7627 98.8503 26.488C99.6396 27.2133 100.61 27.576 101.762 27.576C103.426 27.576 104.61 26.8613 105.314 25.432H110.146C109.634 27.1387 108.653 28.5467 107.202 29.656C105.752 30.744 103.97 31.288 101.858 31.288C100.152 31.288 98.6156 30.9147 97.2503 30.168C95.9063 29.4 94.8503 28.3227 94.0823 26.936C93.3356 25.5493 92.9622 23.9493 92.9622 22.136C92.9622 20.3013 93.3356 18.6907 94.0823 17.304C94.8289 15.9173 95.8743 14.8507 97.2183 14.104C98.5623 13.3573 100.109 12.984 101.858 12.984C103.544 12.984 105.048 13.3467 106.37 14.072C107.714 14.7973 108.749 15.832 109.474 17.176C110.221 18.4987 110.594 20.024 110.594 21.752ZM105.954 20.472C105.933 19.32 105.517 18.4027 104.706 17.72C103.896 17.016 102.904 16.664 101.73 16.664C100.621 16.664 99.6823 17.0053 98.9143 17.688C98.1676 18.3493 97.7089 19.2773 97.5383 20.472H105.954ZM201.125 31H196.645L186.501 15.672V31H182.021V8.632H186.501L196.645 23.992V8.632H201.125V31ZM204.4 22.072C204.4 20.28 204.752 18.6907 205.456 17.304C206.181 15.9173 207.152 14.8507 208.368 14.104C209.605 13.3573 210.981 12.984 212.496 12.984C213.818 12.984 214.97 13.2507 215.952 13.784C216.954 14.3173 217.754 14.9893 218.352 15.8V13.272H222.864V31H218.352V28.408C217.776 29.24 216.976 29.9333 215.952 30.488C214.949 31.0213 213.786 31.288 212.464 31.288C210.97 31.288 209.605 30.904 208.368 30.136C207.152 29.368 206.181 28.2907 205.456 26.904C204.752 25.496 204.4 23.8853 204.4 22.072ZM218.352 22.136C218.352 21.048 218.138 20.12 217.712 19.352C217.285 18.5627 216.709 17.9653 215.984 17.56C215.258 17.1333 214.48 16.92 213.648 16.92C212.816 16.92 212.048 17.1227 211.344 17.528C210.64 17.9333 210.064 18.5307 209.616 19.32C209.189 20.088 208.976 21.0053 208.976 22.072C208.976 23.1387 209.189 24.0773 209.616 24.888C210.064 25.6773 210.64 26.2853 211.344 26.712C212.069 27.1387 212.837 27.352 213.648 27.352C214.48 27.352 215.258 27.1493 215.984 26.744C216.709 26.3173 217.285 25.72 217.712 24.952C218.138 24.1627 218.352 23.224 218.352 22.136ZM238.759 31L233.831 22.296H231.719V31H227.239V8.664H235.623C237.351 8.664 238.823 8.97333 240.039 9.592C241.255 10.1893 242.162 11.0107 242.759 12.056C243.378 13.08 243.687 14.232 243.687 15.512C243.687 16.984 243.261 18.3173 242.407 19.512C241.554 20.6853 240.285 21.496 238.599 21.944L243.943 31H238.759ZM231.719 18.936H235.463C236.679 18.936 237.586 18.648 238.183 18.072C238.781 17.4747 239.079 16.6533 239.079 15.608C239.079 14.584 238.781 13.7947 238.183 13.24C237.586 12.664 236.679 12.376 235.463 12.376H231.719V18.936ZM264.219 21.752C264.219 22.392 264.177 22.968 264.091 23.48H251.131C251.238 24.76 251.686 25.7627 252.475 26.488C253.265 27.2133 254.235 27.576 255.387 27.576C257.051 27.576 258.235 26.8613 258.939 25.432H263.771C263.259 27.1387 262.278 28.5467 260.827 29.656C259.377 30.744 257.595 31.288 255.483 31.288C253.777 31.288 252.241 30.9147 250.875 30.168C249.531 29.4 248.475 28.3227 247.707 26.936C246.961 25.5493 246.587 23.9493 246.587 22.136C246.587 20.3013 246.961 18.6907 247.707 17.304C248.454 15.9173 249.499 14.8507 250.843 14.104C252.187 13.3573 253.734 12.984 255.483 12.984C257.169 12.984 258.673 13.3467 259.995 14.072C261.339 14.7973 262.374 15.832 263.099 17.176C263.846 18.4987 264.219 20.024 264.219 21.752ZM259.579 20.472C259.558 19.32 259.142 18.4027 258.331 17.72C257.521 17.016 256.529 16.664 255.355 16.664C254.246 16.664 253.307 17.0053 252.539 17.688C251.793 18.3493 251.334 19.2773 251.163 20.472H259.579ZM266.337 22.072C266.337 20.28 266.689 18.6907 267.393 17.304C268.119 15.9173 269.1 14.8507 270.337 14.104C271.575 13.3573 272.951 12.984 274.465 12.984C275.617 12.984 276.716 13.24 277.761 13.752C278.807 14.2427 279.639 14.904 280.257 15.736V7.32H284.801V31H280.257V28.376C279.703 29.2507 278.924 29.9547 277.921 30.488C276.919 31.0213 275.756 31.288 274.433 31.288C272.94 31.288 271.575 30.904 270.337 30.136C269.1 29.368 268.119 28.2907 267.393 26.904C266.689 25.496 266.337 23.8853 266.337 22.072ZM280.289 22.136C280.289 21.048 280.076 20.12 279.649 19.352C279.223 18.5627 278.647 17.9653 277.921 17.56C277.196 17.1333 276.417 16.92 275.585 16.92C274.753 16.92 273.985 17.1227 273.281 17.528C272.577 17.9333 272.001 18.5307 271.553 19.32C271.127 20.088 270.913 21.0053 270.913 22.072C270.913 23.1387 271.127 24.0773 271.553 24.888C272.001 25.6773 272.577 26.2853 273.281 26.712C274.007 27.1387 274.775 27.352 275.585 27.352C276.417 27.352 277.196 27.1493 277.921 26.744C278.647 26.3173 279.223 25.72 279.649 24.952C280.076 24.1627 280.289 23.224 280.289 22.136ZM305.657 21.752C305.657 22.392 305.614 22.968 305.529 23.48H292.569C292.675 24.76 293.123 25.7627 293.913 26.488C294.702 27.2133 295.673 27.576 296.825 27.576C298.489 27.576 299.673 26.8613 300.377 25.432H305.209C304.697 27.1387 303.715 28.5467 302.265 29.656C300.814 30.744 299.033 31.288 296.921 31.288C295.214 31.288 293.678 30.9147 292.313 30.168C290.969 29.4 289.913 28.3227 289.145 26.936C288.398 25.5493 288.025 23.9493 288.025 22.136C288.025 20.3013 288.398 18.6907 289.145 17.304C289.891 15.9173 290.937 14.8507 292.281 14.104C293.625 13.3573 295.171 12.984 296.921 12.984C298.606 12.984 300.11 13.3467 301.433 14.072C302.777 14.7973 303.811 15.832 304.537 17.176C305.283 18.4987 305.657 20.024 305.657 21.752ZM301.017 20.472C300.995 19.32 300.579 18.4027 299.769 17.72C298.958 17.016 297.966 16.664 296.793 16.664C295.683 16.664 294.745 17.0053 293.977 17.688C293.23 18.3493 292.771 19.2773 292.601 20.472H301.017Z" fill="#303030"/>
    <path d="M132.968 31H128.488L118.344 15.672V31H113.864V8.632H118.344L128.488 23.992V8.632H132.968V31ZM147.764 31.224C145.673 31.224 143.753 30.7333 142.004 29.752C140.254 28.7707 138.868 27.416 137.844 25.688C136.82 23.9387 136.308 21.9653 136.308 19.768C136.308 17.592 136.82 15.64 137.844 13.912C138.868 12.1627 140.254 10.7973 142.004 9.816C143.753 8.83467 145.673 8.344 147.764 8.344C149.876 8.344 151.796 8.83467 153.524 9.816C155.273 10.7973 156.649 12.1627 157.652 13.912C158.676 15.64 159.188 17.592 159.188 19.768C159.188 21.9653 158.676 23.9387 157.652 25.688C156.649 27.416 155.273 28.7707 153.524 29.752C151.774 30.7333 149.854 31.224 147.764 31.224ZM147.764 27.224C149.108 27.224 150.292 26.9253 151.316 26.328C152.34 25.7093 153.14 24.8347 153.716 23.704C154.292 22.5733 154.58 21.2613 154.58 19.768C154.58 18.2747 154.292 16.9733 153.716 15.864C153.14 14.7333 152.34 13.8693 151.316 13.272C150.292 12.6747 149.108 12.376 147.764 12.376C146.42 12.376 145.225 12.6747 144.18 13.272C143.156 13.8693 142.356 14.7333 141.78 15.864C141.204 16.9733 140.916 18.2747 140.916 19.768C140.916 21.2613 141.204 22.5733 141.78 23.704C142.356 24.8347 143.156 25.7093 144.18 26.328C145.225 26.9253 146.42 27.224 147.764 27.224ZM151.252 4.024L143.892 7.384V4.184L151.252 0.375999V4.024ZM170.233 31.224C168.675 31.224 167.267 30.9573 166.009 30.424C164.771 29.8907 163.79 29.1227 163.065 28.12C162.339 27.1173 161.966 25.9333 161.945 24.568H166.745C166.809 25.4853 167.129 26.2107 167.705 26.744C168.302 27.2773 169.113 27.544 170.137 27.544C171.182 27.544 172.003 27.2987 172.601 26.808C173.198 26.296 173.497 25.6347 173.497 24.824C173.497 24.1627 173.294 23.6187 172.889 23.192C172.483 22.7653 171.971 22.4347 171.353 22.2C170.755 21.944 169.923 21.6667 168.857 21.368C167.406 20.9413 166.222 20.5253 165.305 20.12C164.409 19.6933 163.63 19.064 162.969 18.232C162.329 17.3787 162.009 16.248 162.009 14.84C162.009 13.5173 162.339 12.3653 163.001 11.384C163.662 10.4027 164.59 9.656 165.785 9.144C166.979 8.61067 168.345 8.344 169.881 8.344C172.185 8.344 174.051 8.90933 175.481 10.04C176.931 11.1493 177.731 12.7067 177.881 14.712H172.953C172.91 13.944 172.579 13.3147 171.961 12.824C171.363 12.312 170.563 12.056 169.561 12.056C168.686 12.056 167.982 12.28 167.449 12.728C166.937 13.176 166.681 13.8267 166.681 14.68C166.681 15.2773 166.873 15.7787 167.257 16.184C167.662 16.568 168.153 16.888 168.729 17.144C169.326 17.3787 170.158 17.656 171.225 17.976C172.675 18.4027 173.859 18.8293 174.777 19.256C175.694 19.6827 176.483 20.3227 177.145 21.176C177.806 22.0293 178.137 23.1493 178.137 24.536C178.137 25.7307 177.827 26.84 177.208 27.864C176.59 28.888 175.683 29.7093 174.489 30.328C173.294 30.9253 171.875 31.224 170.233 31.224Z" fill="#8D45E8"/>
    <path d="M47.0414 43.524V46.32H50.0894V47.22H47.0414V50.1H50.4494V51H45.9494V42.624H50.4494V43.524H47.0414ZM51.6937 47.688C51.6937 47.016 51.8297 46.428 52.1017 45.924C52.3737 45.412 52.7457 45.016 53.2177 44.736C53.6977 44.456 54.2337 44.316 54.8257 44.316C55.3377 44.316 55.8137 44.436 56.2537 44.676C56.6937 44.908 57.0297 45.216 57.2617 45.6V42.12H58.3657V51H57.2617V49.764C57.0457 50.156 56.7257 50.48 56.3017 50.736C55.8777 50.984 55.3817 51.108 54.8137 51.108C54.2297 51.108 53.6977 50.964 53.2177 50.676C52.7457 50.388 52.3737 49.984 52.1017 49.464C51.8297 48.944 51.6937 48.352 51.6937 47.688ZM57.2617 47.7C57.2617 47.204 57.1617 46.772 56.9617 46.404C56.7617 46.036 56.4897 45.756 56.1457 45.564C55.8097 45.364 55.4377 45.264 55.0297 45.264C54.6217 45.264 54.2497 45.36 53.9137 45.552C53.5777 45.744 53.3097 46.024 53.1097 46.392C52.9097 46.76 52.8097 47.192 52.8097 47.688C52.8097 48.192 52.9097 48.632 53.1097 49.008C53.3097 49.376 53.5777 49.66 53.9137 49.86C54.2497 50.052 54.6217 50.148 55.0297 50.148C55.4377 50.148 55.8097 50.052 56.1457 49.86C56.4897 49.66 56.7617 49.376 56.9617 49.008C57.1617 48.632 57.2617 48.196 57.2617 47.7ZM66.0431 44.424V51H64.9511V50.028C64.7431 50.364 64.4511 50.628 64.0751 50.82C63.7071 51.004 63.2991 51.096 62.8511 51.096C62.3391 51.096 61.8791 50.992 61.4711 50.784C61.0631 50.568 60.7391 50.248 60.4991 49.824C60.2671 49.4 60.1511 48.884 60.1511 48.276V44.424H61.2311V48.132C61.2311 48.78 61.3951 49.28 61.7231 49.632C62.0511 49.976 62.4991 50.148 63.0671 50.148C63.6511 50.148 64.1111 49.968 64.4471 49.608C64.7831 49.248 64.9511 48.724 64.9511 48.036V44.424H66.0431ZM67.4789 47.7C67.4789 47.02 67.6149 46.428 67.8869 45.924C68.1589 45.412 68.5349 45.016 69.0149 44.736C69.5029 44.456 70.0589 44.316 70.6829 44.316C71.4909 44.316 72.1549 44.512 72.6749 44.904C73.2029 45.296 73.5509 45.84 73.7189 46.536H72.5429C72.4309 46.136 72.2109 45.82 71.8829 45.588C71.5629 45.356 71.1629 45.24 70.6829 45.24C70.0589 45.24 69.5549 45.456 69.1709 45.888C68.7869 46.312 68.5949 46.916 68.5949 47.7C68.5949 48.492 68.7869 49.104 69.1709 49.536C69.5549 49.968 70.0589 50.184 70.6829 50.184C71.1629 50.184 71.5629 50.072 71.8829 49.848C72.2029 49.624 72.4229 49.304 72.5429 48.888H73.7189C73.5429 49.56 73.1909 50.1 72.6629 50.508C72.1349 50.908 71.4749 51.108 70.6829 51.108C70.0589 51.108 69.5029 50.968 69.0149 50.688C68.5349 50.408 68.1589 50.012 67.8869 49.5C67.6149 48.988 67.4789 48.388 67.4789 47.7ZM74.768 47.688C74.768 47.016 74.904 46.428 75.176 45.924C75.448 45.412 75.82 45.016 76.292 44.736C76.772 44.456 77.304 44.316 77.888 44.316C78.464 44.316 78.964 44.44 79.388 44.688C79.812 44.936 80.128 45.248 80.336 45.624V44.424H81.44V51H80.336V49.776C80.12 50.16 79.796 50.48 79.364 50.736C78.94 50.984 78.444 51.108 77.876 51.108C77.292 51.108 76.764 50.964 76.292 50.676C75.82 50.388 75.448 49.984 75.176 49.464C74.904 48.944 74.768 48.352 74.768 47.688ZM80.336 47.7C80.336 47.204 80.236 46.772 80.036 46.404C79.836 46.036 79.564 45.756 79.22 45.564C78.884 45.364 78.512 45.264 78.104 45.264C77.696 45.264 77.324 45.36 76.988 45.552C76.652 45.744 76.384 46.024 76.184 46.392C75.984 46.76 75.884 47.192 75.884 47.688C75.884 48.192 75.984 48.632 76.184 49.008C76.384 49.376 76.652 49.66 76.988 49.86C77.324 50.052 77.696 50.148 78.104 50.148C78.512 50.148 78.884 50.052 79.22 49.86C79.564 49.66 79.836 49.376 80.036 49.008C80.236 48.632 80.336 48.196 80.336 47.7ZM82.8773 47.688C82.8773 47.016 83.0133 46.428 83.2853 45.924C83.5573 45.412 83.9293 45.016 84.4013 44.736C84.8813 44.456 85.4173 44.316 86.0093 44.316C86.5213 44.316 86.9973 44.436 87.4373 44.676C87.8773 44.908 88.2133 45.216 88.4453 45.6V42.12H89.5493V51H88.4453V49.764C88.2293 50.156 87.9093 50.48 87.4853 50.736C87.0613 50.984 86.5653 51.108 85.9973 51.108C85.4133 51.108 84.8813 50.964 84.4013 50.676C83.9293 50.388 83.5573 49.984 83.2853 49.464C83.0133 48.944 82.8773 48.352 82.8773 47.688ZM88.4453 47.7C88.4453 47.204 88.3453 46.772 88.1453 46.404C87.9453 46.036 87.6733 45.756 87.3293 45.564C86.9933 45.364 86.6213 45.264 86.2133 45.264C85.8053 45.264 85.4333 45.36 85.0973 45.552C84.7613 45.744 84.4933 46.024 84.2933 46.392C84.0933 46.76 83.9933 47.192 83.9933 47.688C83.9933 48.192 84.0933 48.632 84.2933 49.008C84.4933 49.376 84.7613 49.66 85.0973 49.86C85.4333 50.052 85.8053 50.148 86.2133 50.148C86.6213 50.148 86.9933 50.052 87.3293 49.86C87.6733 49.66 87.9453 49.376 88.1453 49.008C88.3453 48.632 88.4453 48.196 88.4453 47.7ZM94.2627 51.108C93.6467 51.108 93.0867 50.968 92.5827 50.688C92.0867 50.408 91.6947 50.012 91.4067 49.5C91.1267 48.98 90.9867 48.38 90.9867 47.7C90.9867 47.028 91.1307 46.436 91.4187 45.924C91.7147 45.404 92.1147 45.008 92.6187 44.736C93.1227 44.456 93.6867 44.316 94.3107 44.316C94.9347 44.316 95.4987 44.456 96.0027 44.736C96.5067 45.008 96.9027 45.4 97.1907 45.912C97.4867 46.424 97.6347 47.02 97.6347 47.7C97.6347 48.38 97.4827 48.98 97.1787 49.5C96.8827 50.012 96.4787 50.408 95.9667 50.688C95.4547 50.968 94.8867 51.108 94.2627 51.108ZM94.2627 50.148C94.6547 50.148 95.0227 50.056 95.3667 49.872C95.7107 49.688 95.9867 49.412 96.1947 49.044C96.4107 48.676 96.5187 48.228 96.5187 47.7C96.5187 47.172 96.4147 46.724 96.2067 46.356C95.9987 45.988 95.7267 45.716 95.3907 45.54C95.0547 45.356 94.6907 45.264 94.2987 45.264C93.8987 45.264 93.5307 45.356 93.1947 45.54C92.8667 45.716 92.6027 45.988 92.4027 46.356C92.2027 46.724 92.1027 47.172 92.1027 47.7C92.1027 48.236 92.1987 48.688 92.3907 49.056C92.5907 49.424 92.8547 49.7 93.1827 49.884C93.5107 50.06 93.8707 50.148 94.2627 50.148ZM100.162 45.492C100.354 45.116 100.626 44.824 100.978 44.616C101.338 44.408 101.774 44.304 102.286 44.304V45.432H101.998C100.774 45.432 100.162 46.096 100.162 47.424V51H99.0705V44.424H100.162V45.492ZM109.547 47.46C109.547 47.668 109.535 47.888 109.511 48.12H104.255C104.295 48.768 104.515 49.276 104.915 49.644C105.323 50.004 105.815 50.184 106.391 50.184C106.863 50.184 107.255 50.076 107.567 49.86C107.887 49.636 108.111 49.34 108.239 48.972H109.415C109.239 49.604 108.887 50.12 108.359 50.52C107.831 50.912 107.175 51.108 106.391 51.108C105.767 51.108 105.207 50.968 104.711 50.688C104.223 50.408 103.839 50.012 103.559 49.5C103.279 48.98 103.139 48.38 103.139 47.7C103.139 47.02 103.275 46.424 103.547 45.912C103.819 45.4 104.199 45.008 104.687 44.736C105.183 44.456 105.751 44.316 106.391 44.316C107.015 44.316 107.567 44.452 108.047 44.724C108.527 44.996 108.895 45.372 109.151 45.852C109.415 46.324 109.547 46.86 109.547 47.46ZM108.419 47.232C108.419 46.816 108.327 46.46 108.143 46.164C107.959 45.86 107.707 45.632 107.387 45.48C107.075 45.32 106.727 45.24 106.343 45.24C105.791 45.24 105.319 45.416 104.927 45.768C104.543 46.12 104.323 46.608 104.267 47.232H108.419ZM113.316 51.108C112.812 51.108 112.36 51.024 111.96 50.856C111.56 50.68 111.244 50.44 111.012 50.136C110.78 49.824 110.652 49.468 110.628 49.068H111.756C111.788 49.396 111.94 49.664 112.212 49.872C112.492 50.08 112.856 50.184 113.304 50.184C113.72 50.184 114.048 50.092 114.288 49.908C114.528 49.724 114.648 49.492 114.648 49.212C114.648 48.924 114.52 48.712 114.264 48.576C114.008 48.432 113.612 48.292 113.076 48.156C112.588 48.028 112.188 47.9 111.876 47.772C111.572 47.636 111.308 47.44 111.084 47.184C110.868 46.92 110.76 46.576 110.76 46.152C110.76 45.816 110.86 45.508 111.06 45.228C111.26 44.948 111.544 44.728 111.912 44.568C112.28 44.4 112.7 44.316 113.172 44.316C113.9 44.316 114.488 44.5 114.936 44.868C115.384 45.236 115.624 45.74 115.656 46.38H114.564C114.54 46.036 114.4 45.76 114.144 45.552C113.896 45.344 113.56 45.24 113.136 45.24C112.744 45.24 112.432 45.324 112.2 45.492C111.968 45.66 111.852 45.88 111.852 46.152C111.852 46.368 111.92 46.548 112.056 46.692C112.2 46.828 112.376 46.94 112.584 47.028C112.8 47.108 113.096 47.2 113.472 47.304C113.944 47.432 114.328 47.56 114.624 47.688C114.92 47.808 115.172 47.992 115.38 48.24C115.596 48.488 115.708 48.812 115.716 49.212C115.716 49.572 115.616 49.896 115.416 50.184C115.216 50.472 114.932 50.7 114.564 50.868C114.204 51.028 113.788 51.108 113.316 51.108ZM126.457 47.46C126.457 47.668 126.445 47.888 126.421 48.12H121.165C121.205 48.768 121.425 49.276 121.825 49.644C122.233 50.004 122.725 50.184 123.301 50.184C123.773 50.184 124.165 50.076 124.477 49.86C124.797 49.636 125.021 49.34 125.149 48.972H126.325C126.149 49.604 125.797 50.12 125.269 50.52C124.741 50.912 124.085 51.108 123.301 51.108C122.677 51.108 122.117 50.968 121.621 50.688C121.133 50.408 120.749 50.012 120.469 49.5C120.189 48.98 120.049 48.38 120.049 47.7C120.049 47.02 120.185 46.424 120.457 45.912C120.729 45.4 121.109 45.008 121.597 44.736C122.093 44.456 122.661 44.316 123.301 44.316C123.925 44.316 124.477 44.452 124.957 44.724C125.437 44.996 125.805 45.372 126.061 45.852C126.325 46.324 126.457 46.86 126.457 47.46ZM125.329 47.232C125.329 46.816 125.237 46.46 125.053 46.164C124.869 45.86 124.617 45.632 124.297 45.48C123.985 45.32 123.637 45.24 123.253 45.24C122.701 45.24 122.229 45.416 121.837 45.768C121.453 46.12 121.233 46.608 121.177 47.232H125.329ZM135.807 44.304C136.319 44.304 136.775 44.412 137.175 44.628C137.575 44.836 137.891 45.152 138.123 45.576C138.355 46 138.471 46.516 138.471 47.124V51H137.391V47.28C137.391 46.624 137.227 46.124 136.899 45.78C136.579 45.428 136.143 45.252 135.591 45.252C135.023 45.252 134.571 45.436 134.235 45.804C133.899 46.164 133.731 46.688 133.731 47.376V51H132.651V47.28C132.651 46.624 132.487 46.124 132.159 45.78C131.839 45.428 131.403 45.252 130.851 45.252C130.283 45.252 129.831 45.436 129.495 45.804C129.159 46.164 128.991 46.688 128.991 47.376V51H127.899V44.424H128.991V45.372C129.207 45.028 129.495 44.764 129.855 44.58C130.223 44.396 130.627 44.304 131.067 44.304C131.619 44.304 132.107 44.428 132.531 44.676C132.955 44.924 133.271 45.288 133.479 45.768C133.663 45.304 133.967 44.944 134.391 44.688C134.815 44.432 135.287 44.304 135.807 44.304ZM144.025 43.356C143.817 43.356 143.641 43.284 143.497 43.14C143.353 42.996 143.281 42.82 143.281 42.612C143.281 42.404 143.353 42.228 143.497 42.084C143.641 41.94 143.817 41.868 144.025 41.868C144.225 41.868 144.393 41.94 144.529 42.084C144.673 42.228 144.745 42.404 144.745 42.612C144.745 42.82 144.673 42.996 144.529 43.14C144.393 43.284 144.225 43.356 144.025 43.356ZM144.553 44.424V51H143.461V44.424H144.553ZM149.618 44.304C150.418 44.304 151.066 44.548 151.562 45.036C152.058 45.516 152.306 46.212 152.306 47.124V51H151.226V47.28C151.226 46.624 151.062 46.124 150.734 45.78C150.406 45.428 149.958 45.252 149.39 45.252C148.814 45.252 148.354 45.432 148.01 45.792C147.674 46.152 147.506 46.676 147.506 47.364V51H146.414V44.424H147.506V45.36C147.722 45.024 148.014 44.764 148.382 44.58C148.758 44.396 149.17 44.304 149.618 44.304ZM155.422 45.324V49.2C155.422 49.52 155.49 49.748 155.626 49.884C155.762 50.012 155.998 50.076 156.334 50.076H157.138V51H156.154C155.546 51 155.09 50.86 154.786 50.58C154.482 50.3 154.33 49.84 154.33 49.2V45.324H153.478V44.424H154.33V42.768H155.422V44.424H157.138V45.324H155.422ZM164.461 47.46C164.461 47.668 164.449 47.888 164.425 48.12H159.169C159.209 48.768 159.429 49.276 159.829 49.644C160.237 50.004 160.729 50.184 161.305 50.184C161.777 50.184 162.169 50.076 162.481 49.86C162.801 49.636 163.025 49.34 163.153 48.972H164.329C164.153 49.604 163.801 50.12 163.273 50.52C162.745 50.912 162.089 51.108 161.305 51.108C160.681 51.108 160.121 50.968 159.625 50.688C159.137 50.408 158.753 50.012 158.473 49.5C158.193 48.98 158.053 48.38 158.053 47.7C158.053 47.02 158.189 46.424 158.461 45.912C158.733 45.4 159.113 45.008 159.601 44.736C160.097 44.456 160.665 44.316 161.305 44.316C161.929 44.316 162.481 44.452 162.961 44.724C163.441 44.996 163.809 45.372 164.065 45.852C164.329 46.324 164.461 46.86 164.461 47.46ZM163.333 47.232C163.333 46.816 163.241 46.46 163.057 46.164C162.873 45.86 162.621 45.632 162.301 45.48C161.989 45.32 161.641 45.24 161.257 45.24C160.705 45.24 160.233 45.416 159.841 45.768C159.457 46.12 159.237 46.608 159.181 47.232H163.333ZM166.995 45.492C167.187 45.116 167.459 44.824 167.811 44.616C168.171 44.408 168.607 44.304 169.119 44.304V45.432H168.831C167.607 45.432 166.995 46.096 166.995 47.424V51H165.903V44.424H166.995V45.492ZM169.971 47.688C169.971 47.016 170.107 46.428 170.379 45.924C170.651 45.412 171.023 45.016 171.495 44.736C171.975 44.456 172.507 44.316 173.091 44.316C173.667 44.316 174.167 44.44 174.591 44.688C175.015 44.936 175.331 45.248 175.539 45.624V44.424H176.643V51H175.539V49.776C175.323 50.16 174.999 50.48 174.567 50.736C174.143 50.984 173.647 51.108 173.079 51.108C172.495 51.108 171.967 50.964 171.495 50.676C171.023 50.388 170.651 49.984 170.379 49.464C170.107 48.944 169.971 48.352 169.971 47.688ZM175.539 47.7C175.539 47.204 175.439 46.772 175.239 46.404C175.039 46.036 174.767 45.756 174.423 45.564C174.087 45.364 173.715 45.264 173.307 45.264C172.899 45.264 172.527 45.36 172.191 45.552C171.855 45.744 171.587 46.024 171.387 46.392C171.187 46.76 171.087 47.192 171.087 47.688C171.087 48.192 171.187 48.632 171.387 49.008C171.587 49.376 171.855 49.66 172.191 49.86C172.527 50.052 172.899 50.148 173.307 50.148C173.715 50.148 174.087 50.052 174.423 49.86C174.767 49.66 175.039 49.376 175.239 49.008C175.439 48.632 175.539 48.196 175.539 47.7ZM181.284 50.184C181.764 50.184 182.164 50.072 182.484 49.848C182.804 49.624 183.024 49.304 183.144 48.888H184.32C184.16 49.512 183.844 50.024 183.372 50.424C182.908 50.816 182.324 51.04 181.62 51.096V51.696C182.092 51.688 182.468 51.788 182.748 51.996C183.028 52.204 183.168 52.5 183.168 52.884C183.168 53.26 183.032 53.56 182.76 53.784C182.488 54.008 182.136 54.12 181.704 54.12H180.324V53.412H181.488C181.752 53.412 181.944 53.372 182.064 53.292C182.192 53.212 182.256 53.076 182.256 52.884C182.256 52.7 182.192 52.568 182.064 52.488C181.944 52.408 181.752 52.368 181.488 52.368H180.888V51.084C180.336 51.028 179.848 50.856 179.424 50.568C179 50.272 178.668 49.88 178.428 49.392C178.196 48.896 178.08 48.332 178.08 47.7C178.08 47.02 178.216 46.428 178.488 45.924C178.76 45.412 179.136 45.016 179.616 44.736C180.104 44.456 180.66 44.316 181.284 44.316C182.092 44.316 182.756 44.512 183.276 44.904C183.804 45.296 184.152 45.84 184.32 46.536H183.144C183.032 46.136 182.812 45.82 182.484 45.588C182.164 45.356 181.764 45.24 181.284 45.24C180.66 45.24 180.156 45.456 179.772 45.888C179.388 46.312 179.196 46.916 179.196 47.7C179.196 48.492 179.388 49.104 179.772 49.536C180.156 49.968 180.66 50.184 181.284 50.184ZM188.646 51.108C188.03 51.108 187.47 50.968 186.966 50.688C186.47 50.408 186.078 50.012 185.79 49.5C185.51 48.98 185.37 48.38 185.37 47.7C185.37 47.028 185.514 46.436 185.802 45.924C186.098 45.404 186.498 45.008 187.002 44.736C187.506 44.456 188.07 44.316 188.694 44.316C189.318 44.316 189.882 44.456 190.386 44.736C190.89 45.008 191.286 45.4 191.574 45.912C191.87 46.424 192.018 47.02 192.018 47.7C192.018 48.38 191.866 48.98 191.562 49.5C191.266 50.012 190.862 50.408 190.35 50.688C189.838 50.968 189.27 51.108 188.646 51.108ZM188.646 50.148C189.038 50.148 189.406 50.056 189.75 49.872C190.094 49.688 190.37 49.412 190.578 49.044C190.794 48.676 190.902 48.228 190.902 47.7C190.902 47.172 190.798 46.724 190.59 46.356C190.382 45.988 190.11 45.716 189.774 45.54C189.438 45.356 189.074 45.264 188.682 45.264C188.282 45.264 187.914 45.356 187.578 45.54C187.25 45.716 186.986 45.988 186.786 46.356C186.586 46.724 186.486 47.172 186.486 47.7C186.486 48.236 186.582 48.688 186.774 49.056C186.974 49.424 187.238 49.7 187.566 49.884C187.894 50.06 188.254 50.148 188.646 50.148ZM186.942 43.632C186.998 43.224 187.13 42.912 187.338 42.696C187.554 42.48 187.822 42.372 188.142 42.372C188.294 42.372 188.422 42.4 188.526 42.456C188.638 42.504 188.77 42.576 188.922 42.672C189.034 42.752 189.134 42.816 189.222 42.864C189.31 42.904 189.406 42.924 189.51 42.924C189.646 42.924 189.762 42.88 189.858 42.792C189.954 42.704 190.014 42.576 190.038 42.408H190.662C190.614 42.808 190.482 43.116 190.266 43.332C190.05 43.548 189.782 43.656 189.462 43.656C189.31 43.656 189.174 43.632 189.054 43.584C188.942 43.528 188.814 43.448 188.67 43.344C188.542 43.264 188.438 43.204 188.358 43.164C188.286 43.124 188.198 43.104 188.094 43.104C187.958 43.104 187.842 43.148 187.746 43.236C187.658 43.324 187.602 43.456 187.578 43.632H186.942ZM199.453 47.46C199.453 47.668 199.441 47.888 199.417 48.12H194.161C194.201 48.768 194.421 49.276 194.821 49.644C195.229 50.004 195.721 50.184 196.297 50.184C196.769 50.184 197.161 50.076 197.473 49.86C197.793 49.636 198.017 49.34 198.145 48.972H199.321C199.145 49.604 198.793 50.12 198.265 50.52C197.737 50.912 197.081 51.108 196.297 51.108C195.673 51.108 195.113 50.968 194.617 50.688C194.129 50.408 193.745 50.012 193.465 49.5C193.185 48.98 193.045 48.38 193.045 47.7C193.045 47.02 193.181 46.424 193.453 45.912C193.725 45.4 194.105 45.008 194.593 44.736C195.089 44.456 195.657 44.316 196.297 44.316C196.921 44.316 197.473 44.452 197.953 44.724C198.433 44.996 198.801 45.372 199.057 45.852C199.321 46.324 199.453 46.86 199.453 47.46ZM198.325 47.232C198.325 46.816 198.233 46.46 198.049 46.164C197.865 45.86 197.613 45.632 197.293 45.48C196.981 45.32 196.633 45.24 196.249 45.24C195.697 45.24 195.225 45.416 194.833 45.768C194.449 46.12 194.229 46.608 194.173 47.232H198.325ZM203.223 51.108C202.719 51.108 202.267 51.024 201.867 50.856C201.467 50.68 201.151 50.44 200.919 50.136C200.687 49.824 200.559 49.468 200.535 49.068H201.663C201.695 49.396 201.847 49.664 202.119 49.872C202.399 50.08 202.763 50.184 203.211 50.184C203.627 50.184 203.955 50.092 204.195 49.908C204.435 49.724 204.555 49.492 204.555 49.212C204.555 48.924 204.427 48.712 204.171 48.576C203.915 48.432 203.519 48.292 202.983 48.156C202.495 48.028 202.095 47.9 201.783 47.772C201.479 47.636 201.215 47.44 200.991 47.184C200.775 46.92 200.667 46.576 200.667 46.152C200.667 45.816 200.767 45.508 200.967 45.228C201.167 44.948 201.451 44.728 201.819 44.568C202.187 44.4 202.607 44.316 203.079 44.316C203.807 44.316 204.395 44.5 204.843 44.868C205.291 45.236 205.531 45.74 205.563 46.38H204.471C204.447 46.036 204.307 45.76 204.051 45.552C203.803 45.344 203.467 45.24 203.043 45.24C202.651 45.24 202.339 45.324 202.107 45.492C201.875 45.66 201.759 45.88 201.759 46.152C201.759 46.368 201.827 46.548 201.963 46.692C202.107 46.828 202.283 46.94 202.491 47.028C202.707 47.108 203.003 47.2 203.379 47.304C203.851 47.432 204.235 47.56 204.531 47.688C204.827 47.808 205.079 47.992 205.287 48.24C205.503 48.488 205.615 48.812 205.623 49.212C205.623 49.572 205.523 49.896 205.323 50.184C205.123 50.472 204.839 50.7 204.471 50.868C204.111 51.028 203.695 51.108 203.223 51.108ZM212.811 49.992L214.851 44.424H216.015L213.435 51H212.163L209.583 44.424H210.759L212.811 49.992ZM217.654 43.356C217.446 43.356 217.27 43.284 217.126 43.14C216.982 42.996 216.91 42.82 216.91 42.612C216.91 42.404 216.982 42.228 217.126 42.084C217.27 41.94 217.446 41.868 217.654 41.868C217.854 41.868 218.022 41.94 218.158 42.084C218.302 42.228 218.374 42.404 218.374 42.612C218.374 42.82 218.302 42.996 218.158 43.14C218.022 43.284 217.854 43.356 217.654 43.356ZM218.182 44.424V51H217.09V44.424H218.182ZM221.135 45.492C221.327 45.116 221.599 44.824 221.951 44.616C222.311 44.408 222.747 44.304 223.259 44.304V45.432H222.971C221.747 45.432 221.135 46.096 221.135 47.424V51H220.043V44.424H221.135V45.492ZM225.852 45.324V49.2C225.852 49.52 225.92 49.748 226.056 49.884C226.192 50.012 226.428 50.076 226.764 50.076H227.568V51H226.584C225.976 51 225.52 50.86 225.216 50.58C224.912 50.3 224.76 49.84 224.76 49.2V45.324H223.908V44.424H224.76V42.768H225.852V44.424H227.568V45.324H225.852ZM234.723 44.424V51H233.631V50.028C233.423 50.364 233.131 50.628 232.755 50.82C232.387 51.004 231.979 51.096 231.531 51.096C231.019 51.096 230.559 50.992 230.151 50.784C229.743 50.568 229.419 50.248 229.179 49.824C228.947 49.4 228.831 48.884 228.831 48.276V44.424H229.911V48.132C229.911 48.78 230.075 49.28 230.403 49.632C230.731 49.976 231.179 50.148 231.747 50.148C232.331 50.148 232.791 49.968 233.127 49.608C233.463 49.248 233.631 48.724 233.631 48.036V44.424H234.723ZM236.159 47.688C236.159 47.016 236.295 46.428 236.567 45.924C236.839 45.412 237.211 45.016 237.683 44.736C238.163 44.456 238.695 44.316 239.279 44.316C239.855 44.316 240.355 44.44 240.779 44.688C241.203 44.936 241.519 45.248 241.727 45.624V44.424H242.831V51H241.727V49.776C241.511 50.16 241.187 50.48 240.755 50.736C240.331 50.984 239.835 51.108 239.267 51.108C238.683 51.108 238.155 50.964 237.683 50.676C237.211 50.388 236.839 49.984 236.567 49.464C236.295 48.944 236.159 48.352 236.159 47.688ZM241.727 47.7C241.727 47.204 241.627 46.772 241.427 46.404C241.227 46.036 240.955 45.756 240.611 45.564C240.275 45.364 239.903 45.264 239.495 45.264C239.087 45.264 238.715 45.36 238.379 45.552C238.043 45.744 237.775 46.024 237.575 46.392C237.375 46.76 237.275 47.192 237.275 47.688C237.275 48.192 237.375 48.632 237.575 49.008C237.775 49.376 238.043 49.66 238.379 49.86C238.715 50.052 239.087 50.148 239.495 50.148C239.903 50.148 240.275 50.052 240.611 49.86C240.955 49.66 241.227 49.376 241.427 49.008C241.627 48.632 241.727 48.196 241.727 47.7ZM245.24 43.356C245.032 43.356 244.856 43.284 244.712 43.14C244.568 42.996 244.496 42.82 244.496 42.612C244.496 42.404 244.568 42.228 244.712 42.084C244.856 41.94 245.032 41.868 245.24 41.868C245.44 41.868 245.608 41.94 245.744 42.084C245.888 42.228 245.96 42.404 245.96 42.612C245.96 42.82 245.888 42.996 245.744 43.14C245.608 43.284 245.44 43.356 245.24 43.356ZM245.768 44.424V51H244.676V44.424H245.768ZM249.957 51.108C249.453 51.108 249.001 51.024 248.601 50.856C248.201 50.68 247.885 50.44 247.653 50.136C247.421 49.824 247.293 49.468 247.269 49.068H248.397C248.429 49.396 248.581 49.664 248.853 49.872C249.133 50.08 249.497 50.184 249.945 50.184C250.361 50.184 250.689 50.092 250.929 49.908C251.169 49.724 251.289 49.492 251.289 49.212C251.289 48.924 251.161 48.712 250.905 48.576C250.649 48.432 250.253 48.292 249.717 48.156C249.229 48.028 248.829 47.9 248.517 47.772C248.213 47.636 247.949 47.44 247.725 47.184C247.509 46.92 247.401 46.576 247.401 46.152C247.401 45.816 247.501 45.508 247.701 45.228C247.901 44.948 248.185 44.728 248.553 44.568C248.921 44.4 249.341 44.316 249.813 44.316C250.541 44.316 251.129 44.5 251.577 44.868C252.025 45.236 252.265 45.74 252.297 46.38H251.205C251.181 46.036 251.041 45.76 250.785 45.552C250.537 45.344 250.201 45.24 249.777 45.24C249.385 45.24 249.073 45.324 248.841 45.492C248.609 45.66 248.493 45.88 248.493 46.152C248.493 46.368 248.561 46.548 248.697 46.692C248.841 46.828 249.017 46.94 249.225 47.028C249.441 47.108 249.737 47.2 250.113 47.304C250.585 47.432 250.969 47.56 251.265 47.688C251.561 47.808 251.813 47.992 252.021 48.24C252.237 48.488 252.349 48.812 252.357 49.212C252.357 49.572 252.257 49.896 252.057 50.184C251.857 50.472 251.573 50.7 251.205 50.868C250.845 51.028 250.429 51.108 249.957 51.108Z" fill="#303030"/>
</svg>